<svg id="svg" version="1.1" xmlns="http://www.w3.org/2000/svg" xmlns:xlink="http://www.w3.org/1999/xlink" width="400" height="55.81395348837209" viewBox="0, 0, 400,55.81395348837209"><g id="svgg"><path id="path0" d="M363.174 4.153 C 362.989 4.499,362.924 10.442,363.101 10.903 C 363.258 11.311,363.849 11.215,364.409 10.691 C 365.209 9.942,371.096 5.056,371.412 4.879 C 371.589 4.780,371.675 4.568,371.640 4.318 L 371.583 3.917 367.466 3.872 C 363.529 3.829,363.341 3.842,363.174 4.153 M128.114 4.275 C 128.051 4.338,128.000 6.139,128.000 8.278 C 128.000 12.278,127.998 12.264,128.646 12.174 C 129.236 12.092,137.250 5.114,137.250 4.681 L 137.250 4.250 132.739 4.206 C 130.258 4.181,128.176 4.213,128.114 4.275 M4.458 13.782 C 4.133 13.866,3.995 21.500,4.318 21.500 C 4.636 21.500,13.167 14.335,13.167 14.067 C 13.167 13.707,5.683 13.461,4.458 13.782 M196.317 14.847 C 195.940 15.174,195.914 15.316,195.862 17.314 L 195.808 19.435 195.075 19.651 C 192.236 20.489,190.919 24.364,192.579 26.994 C 193.828 28.972,194.923 29.349,199.806 29.482 L 203.528 29.583 204.011 30.124 C 204.652 30.842,204.757 31.343,204.417 32.059 C 203.858 33.236,203.838 33.240,198.129 33.333 C 192.284 33.428,192.378 33.404,192.213 34.868 C 192.070 36.136,192.604 36.568,194.402 36.642 L 195.833 36.701 195.833 38.495 C 195.833 40.560,196.065 41.070,197.093 41.263 C 198.594 41.544,199.167 40.737,199.167 38.342 L 199.167 36.667 199.917 36.667 L 200.667 36.667 200.667 38.463 C 200.667 40.818,201.208 41.550,202.740 41.263 C 203.777 41.068,204.000 40.567,204.000 38.429 L 204.000 36.570 204.933 36.160 C 208.778 34.471,209.005 28.657,205.300 26.783 C 204.055 26.153,202.908 26.002,199.353 26.001 L 196.289 26.000 195.728 25.405 C 194.350 23.944,195.465 22.667,198.119 22.666 C 206.087 22.664,207.333 22.450,207.333 21.080 C 207.333 19.778,206.806 19.346,205.208 19.339 L 204.000 19.333 204.000 17.365 C 204.000 15.009,203.707 14.500,202.353 14.500 C 201.002 14.500,200.667 15.077,200.667 17.404 L 200.667 19.333 199.917 19.333 L 199.167 19.333 199.167 17.404 C 199.167 15.493,199.162 15.470,198.679 14.987 C 198.061 14.369,196.945 14.303,196.317 14.847 " stroke="none" fill="#fccc04" fill-rule="evenodd"></path><path id="path1" d="M60.500 3.823 C 48.041 5.161,40.583 14.089,40.583 27.667 C 40.583 44.479,52.948 55.035,68.215 51.255 C 70.975 50.571,74.432 48.662,75.385 47.296 C 75.636 46.936,75.650 46.986,75.658 48.281 C 75.663 49.031,75.740 49.839,75.830 50.075 L 75.994 50.506 80.289 50.461 L 84.583 50.417 84.583 38.083 L 84.583 25.750 74.685 25.707 C 67.513 25.676,64.725 25.716,64.560 25.852 C 64.324 26.049,64.210 33.152,64.434 33.736 C 64.524 33.969,65.138 34.000,69.624 34.000 L 74.712 34.000 74.604 34.792 C 73.573 42.349,63.383 45.854,56.718 40.942 C 49.534 35.648,49.317 20.144,56.353 14.716 C 60.861 11.238,67.873 11.558,71.733 15.419 C 72.757 16.443,73.833 18.261,73.833 18.967 C 73.833 19.805,74.007 19.833,79.074 19.833 C 84.482 19.833,84.833 19.797,84.833 19.229 C 84.833 19.011,84.769 18.833,84.690 18.833 C 84.612 18.833,84.502 18.402,84.446 17.875 C 83.509 9.023,72.459 2.539,60.500 3.823 M241.414 4.198 C 241.368 4.318,241.350 14.954,241.374 27.833 L 241.417 51.250 253.083 51.300 C 269.234 51.368,271.107 51.121,274.917 48.418 C 282.234 43.226,282.406 30.425,275.210 26.486 C 273.971 25.807,273.986 25.864,274.893 25.292 C 277.638 23.558,278.909 20.778,278.914 16.500 C 278.921 10.075,275.987 6.203,269.845 4.531 L 268.250 4.097 254.874 4.039 C 243.961 3.991,241.482 4.020,241.414 4.198 M169.151 4.721 C 166.795 5.964,166.824 9.659,169.200 10.809 C 170.646 11.509,172.701 11.117,173.541 9.981 C 173.896 9.500,173.897 9.500,175.781 9.500 L 177.667 9.500 177.667 16.000 L 177.667 22.500 181.417 22.500 L 185.167 22.500 185.167 24.333 L 185.167 26.167 179.603 26.167 L 174.040 26.167 173.608 25.600 C 171.808 23.241,167.848 24.318,167.402 27.288 C 166.881 30.763,171.464 32.710,173.593 29.918 L 174.040 29.333 179.603 29.333 L 185.167 29.333 185.167 31.333 L 185.167 33.333 181.625 33.336 C 179.677 33.337,177.991 33.397,177.878 33.469 C 177.725 33.566,177.661 34.765,177.628 38.155 L 177.583 42.711 175.282 43.926 L 172.981 45.142 172.282 44.825 C 169.800 43.698,167.028 45.771,167.399 48.478 C 167.914 52.236,173.546 52.386,174.247 48.661 C 174.351 48.106,174.473 48.022,177.343 46.532 C 181.246 44.504,180.833 45.209,180.833 40.571 L 180.833 36.667 183.000 36.667 L 185.167 36.667 185.167 38.066 C 185.167 41.924,187.398 44.930,190.870 45.748 C 192.722 46.185,207.694 46.110,209.333 45.655 C 213.054 44.624,215.000 41.907,215.000 37.742 L 215.000 36.333 217.165 36.333 L 219.329 36.333 219.373 42.792 L 219.417 49.250 222.667 49.304 L 225.917 49.359 226.417 50.038 C 228.321 52.624,232.646 51.260,232.663 48.067 C 232.680 44.828,228.812 43.285,226.594 45.646 L 226.104 46.167 224.304 46.167 L 222.504 46.167 222.460 39.708 L 222.417 33.250 218.708 33.205 L 215.000 33.160 215.000 31.247 L 215.000 29.333 220.542 29.340 L 226.083 29.346 226.419 29.879 C 228.228 32.755,233.011 30.834,232.622 27.387 C 232.278 24.333,228.087 23.175,226.415 25.671 L 226.083 26.166 220.542 26.166 L 215.000 26.167 215.000 24.333 L 215.000 22.500 218.649 22.500 C 221.822 22.500,222.311 22.466,222.399 22.236 C 222.454 22.091,222.501 19.935,222.502 17.445 L 222.504 12.917 224.794 11.750 L 227.083 10.583 227.667 10.875 C 229.953 12.017,232.583 10.345,232.583 7.750 C 232.583 3.496,226.601 3.002,225.759 7.186 C 225.684 7.559,225.209 7.863,222.504 9.270 L 219.337 10.917 219.335 15.125 L 219.333 19.333 217.167 19.333 L 215.000 19.333 214.998 18.042 C 214.989 13.748,212.652 10.626,208.909 9.910 C 207.045 9.553,193.043 9.557,191.344 9.914 C 187.354 10.754,185.167 13.505,185.167 17.682 L 185.167 19.333 183.000 19.333 L 180.833 19.333 180.833 13.033 C 180.833 8.356,180.782 6.682,180.633 6.533 C 180.492 6.392,179.498 6.331,177.258 6.327 L 174.083 6.321 173.631 5.667 C 172.712 4.337,170.688 3.910,169.151 4.721 M367.544 8.172 C 364.911 10.382,363.135 11.990,363.081 12.213 C 363.032 12.417,363.012 21.283,363.038 31.917 L 363.083 51.250 367.855 51.294 L 372.626 51.338 372.728 50.961 C 372.783 50.753,372.830 48.257,372.831 45.413 L 372.833 40.243 374.436 38.663 C 375.317 37.794,376.072 37.158,376.114 37.250 C 376.156 37.342,377.968 40.529,380.141 44.333 L 384.091 51.250 389.962 51.294 L 395.833 51.338 395.833 50.970 C 395.833 50.768,393.022 45.911,389.585 40.176 C 386.149 34.442,383.317 29.703,383.293 29.645 C 383.241 29.519,384.703 27.983,395.042 17.301 C 395.450 16.880,395.411 16.393,394.958 16.272 C 394.319 16.100,383.837 16.153,383.507 16.329 C 383.340 16.419,380.851 19.171,377.977 22.446 L 372.750 28.400 372.707 16.450 L 372.664 4.500 372.291 4.501 C 372.048 4.502,370.383 5.790,367.544 8.172 M132.939 8.936 C 128.051 13.012,128.000 13.061,128.000 13.689 L 128.000 14.324 125.792 14.370 L 123.583 14.417 123.538 18.042 L 123.493 21.667 125.747 21.667 L 128.000 21.667 128.001 30.125 C 128.001 40.554,128.121 41.545,129.755 44.654 C 132.114 49.144,136.423 51.233,143.333 51.236 C 151.670 51.240,156.278 48.199,158.301 41.356 C 158.719 39.943,158.728 39.800,158.792 33.465 L 158.857 27.012 158.470 26.918 C 158.258 26.866,156.058 26.844,153.583 26.870 L 149.083 26.917 148.984 32.417 C 148.882 38.060,148.831 38.514,148.130 39.917 C 146.563 43.054,141.295 43.352,139.565 40.401 C 138.639 38.820,138.615 38.576,138.543 29.876 L 138.477 21.836 148.614 21.793 L 158.750 21.750 158.750 18.083 L 158.750 14.417 148.628 14.374 L 138.505 14.331 138.461 9.626 C 138.422 5.447,138.387 4.915,138.147 4.869 C 137.991 4.839,135.798 6.551,132.939 8.936 M208.406 13.072 C 211.776 14.086,211.858 14.455,211.797 28.443 L 211.750 39.417 211.358 40.206 C 210.129 42.678,209.808 42.750,200.000 42.750 C 190.745 42.750,190.970 42.778,189.687 41.484 C 188.349 40.134,188.417 40.866,188.417 27.750 L 188.417 16.083 188.786 15.393 C 189.311 14.411,190.399 13.545,191.577 13.171 C 192.921 12.745,207.044 12.662,208.406 13.072 M265.567 13.304 C 267.944 13.958,268.750 15.020,268.750 17.500 C 268.750 21.529,267.230 22.199,257.875 22.295 L 251.500 22.361 251.500 17.583 L 251.500 12.806 257.875 12.874 C 263.786 12.936,264.346 12.968,265.567 13.304 M101.083 13.737 C 91.495 15.584,86.763 22.026,87.053 32.833 C 87.398 45.692,93.651 51.620,106.526 51.293 C 111.587 51.164,114.992 49.929,118.144 47.077 C 120.055 45.348,122.375 41.459,122.404 39.937 L 122.417 39.250 117.417 39.203 C 111.602 39.149,111.813 39.121,111.414 40.007 C 110.131 42.850,105.432 44.055,102.051 42.407 C 99.831 41.324,98.175 38.898,97.764 36.125 L 97.646 35.333 110.219 35.333 C 120.857 35.333,122.823 35.297,122.988 35.097 C 123.206 34.835,122.976 30.265,122.652 28.417 C 121.246 20.388,117.481 15.801,110.853 14.045 C 108.873 13.520,103.145 13.339,101.083 13.737 M9.083 17.844 C 6.792 19.774,4.745 21.423,4.534 21.509 L 4.152 21.664 4.201 31.457 L 4.250 41.250 4.779 42.763 C 5.926 46.044,7.549 48.127,10.167 49.674 C 15.388 52.760,24.642 51.409,27.706 47.113 L 28.083 46.583 28.167 48.500 L 28.250 50.417 33.155 50.461 C 36.969 50.495,38.090 50.458,38.194 50.294 C 38.369 50.019,38.369 14.815,38.194 14.539 C 38.090 14.375,36.919 14.338,32.905 14.373 L 27.750 14.417 27.667 25.833 C 27.574 38.573,27.623 38.042,26.361 39.877 C 23.813 43.580,17.329 43.760,15.507 40.178 C 14.775 38.741,14.776 38.749,14.678 26.333 L 14.583 14.417 13.917 14.376 C 13.273 14.336,13.108 14.455,9.083 17.844 M298.667 15.327 C 291.652 16.099,287.741 19.171,286.515 24.872 C 285.763 28.371,285.473 28.162,291.083 28.162 C 295.867 28.162,295.510 28.265,295.967 26.746 C 296.732 24.207,297.986 23.430,301.333 23.422 C 304.782 23.414,306.306 24.177,306.587 26.053 C 306.921 28.278,305.131 29.182,299.083 29.844 C 291.019 30.726,287.189 32.969,285.614 37.734 C 284.898 39.899,284.874 43.510,285.560 45.610 C 288.029 53.161,298.583 54.869,305.907 48.903 L 306.821 48.159 306.869 49.704 L 306.917 51.250 311.598 51.294 L 316.279 51.338 316.390 44.809 C 316.754 23.292,316.563 21.456,313.689 18.799 C 310.943 16.260,304.247 14.712,298.667 15.327 M341.417 15.269 C 338.214 15.602,335.458 17.047,333.743 19.293 L 333.167 20.048 333.167 18.187 C 333.167 16.342,333.163 16.324,332.739 16.163 C 332.182 15.951,324.484 15.951,323.927 16.163 L 323.498 16.326 323.541 33.788 L 323.583 51.250 328.458 51.294 L 333.333 51.338 333.334 41.544 C 333.336 29.531,333.465 28.315,334.971 26.126 C 337.489 22.466,343.470 22.747,345.019 26.599 L 345.415 27.583 345.499 39.417 L 345.583 51.250 350.583 51.250 L 355.583 51.250 355.632 39.667 C 355.694 25.080,355.582 23.523,354.279 20.833 C 352.456 17.072,346.960 14.694,341.417 15.269 M106.492 21.832 C 109.403 22.384,111.410 24.583,112.085 27.958 L 112.193 28.500 105.082 28.500 L 97.971 28.500 98.089 27.792 C 98.770 23.713,102.492 21.073,106.492 21.832 M264.583 30.999 C 268.948 31.712,270.843 34.835,269.337 38.831 C 268.164 41.944,266.893 42.333,257.894 42.333 L 251.500 42.333 251.500 36.583 L 251.500 30.833 257.542 30.834 C 260.865 30.835,264.033 30.909,264.583 30.999 M306.092 40.431 C 304.343 46.051,295.000 46.743,295.000 41.253 C 295.000 38.382,296.515 37.269,301.688 36.340 C 303.888 35.945,305.368 35.582,305.990 35.283 L 306.417 35.078 306.464 37.081 C 306.506 38.835,306.460 39.250,306.092 40.431 " stroke="none" fill="#040404" fill-rule="evenodd"></path><path id="path2" d="" stroke="none" fill="#c0d004" fill-rule="evenodd"></path><path id="path3" d="" stroke="none" fill="#406c04" fill-rule="evenodd"></path><path id="path4" d="" stroke="none" fill="#440404" fill-rule="evenodd"></path></g></svg>